<svg width="512" height="512" viewBox="0 0 512 512" xmlns="http://www.w3.org/2000/svg">
  <defs>
    <linearGradient id="bg" x1="0%" y1="0%" x2="100%" y2="100%">
      <stop offset="0%" style="stop-color:#0f172a;stop-opacity:1" />
      <stop offset="100%" style="stop-color:#1e293b;stop-opacity:1" />
    </linearGradient>
  </defs>

  <!-- Background -->
  <rect width="512" height="512" rx="92" fill="url(#bg)"/>

  <!-- Chef Hat -->
  <g transform="translate(256,200)">
    <!-- Hat base -->
    <ellipse cx="0" cy="80" rx="100" ry="20" fill="#ffffff"/>
    <!-- Hat top -->
    <path d="M-80,80 Q-80,20 -40,0 Q0,-20 40,0 Q80,20 80,80 Z" fill="#ffffff"/>
    <!-- Hat details -->
    <ellipse cx="-30" cy="30" rx="15" ry="25" fill="#f8fafc"/>
    <ellipse cx="20" cy="40" rx="12" ry="20" fill="#f8fafc"/>
    <ellipse cx="0" cy="20" rx="18" ry="30" fill="#f8fafc"/>
  </g>

  <!-- Receipt Paper -->
  <g transform="translate(256,320)">
    <rect x="-60" y="-40" width="120" height="140" rx="8" fill="#ffffff" stroke="#e2e8f0" stroke-width="2"/>
    <!-- Receipt lines -->
    <line x1="-45" y1="-20" x2="45" y2="-20" stroke="#94a3b8" stroke-width="2"/>
    <line x1="-45" y1="-5" x2="45" y2="-5" stroke="#94a3b8" stroke-width="2"/>
    <line x1="-45" y1="10" x2="45" y2="10" stroke="#94a3b8" stroke-width="2"/>
    <line x1="-45" y1="25" x2="45" y2="25" stroke="#94a3b8" stroke-width="2"/>
    <line x1="-45" y1="40" x2="30" y2="40" stroke="#94a3b8" stroke-width="2"/>

    <!-- Receipt perforated edge -->
    <circle cx="-50" cy="-30" r="3" fill="#e2e8f0"/>
    <circle cx="-35" cy="-35" r="3" fill="#e2e8f0"/>
    <circle cx="-20" cy="-30" r="3" fill="#e2e8f0"/>
    <circle cx="-5" cy="-35" r="3" fill="#e2e8f0"/>
    <circle cx="10" cy="-30" r="3" fill="#e2e8f0"/>
    <circle cx="25" cy="-35" r="3" fill="#e2e8f0"/>
    <circle cx="40" cy="-30" r="3" fill="#e2e8f0"/>
  </g>

  <!-- Sparkles/Magic effect -->
  <g fill="#fbbf24">
    <circle cx="160" cy="150" r="4"/>
    <circle cx="180" cy="130" r="3"/>
    <circle cx="200" cy="160" r="2"/>
    <circle cx="340" cy="140" r="3"/>
    <circle cx="360" cy="170" r="4"/>
    <circle cx="320" cy="180" r="2"/>
  </g>
</svg>