<svg xmlns="http://www.w3.org/2000/svg" width="512" height="512" viewBox="0 0 512 512" fill="none">
  <rect width="512" height="512" rx="80" fill="#0f172a"/>
  <path d="M256 80c-44.2 0-80 35.8-80 80v16h-32c-17.7 0-32 14.3-32 32v224c0 17.7 14.3 32 32 32h224c17.7 0 32-14.3 32-32V208c0-17.7-14.3-32-32-32h-32v-16c0-44.2-35.8-80-80-80zm0 32c26.5 0 48 21.5 48 48v16H208v-16c0-26.5 21.5-48 48-48zm-96 96h192v192H160V208z" fill="white"/>
  <circle cx="256" cy="304" r="24" fill="#0f172a"/>
  <path d="M200 240h112v16H200v-16zm0 32h112v16H200v-16zm0 64h112v16H200v-16zm0 32h80v16h-80v-16z" fill="#0f172a"/>
</svg>